<svg preserveAspectRatio="none" width="100%" height="100%" overflow="visible" style="display: block;" viewBox="0 0 13.9774 13.9774" fill="none" xmlns="http://www.w3.org/2000/svg">
<path id="Vector" d="M12.4632 6.24827C11.3863 5.78471 10.4441 5.14877 9.63616 4.34121C8.82861 3.53366 8.19265 2.59106 7.7291 1.5142C7.55115 1.10149 7.40815 0.67726 7.29852 0.242304C7.26277 0.100099 7.13526 0 6.98869 0C6.8421 0 6.71459 0.100099 6.67886 0.242304C6.56921 0.67726 6.42621 1.10109 6.24826 1.5142C5.78471 2.59106 5.14877 3.53366 4.34121 4.34121C3.53366 5.14877 2.59106 5.78471 1.5142 6.24827C1.10149 6.42622 0.67726 6.56921 0.242303 6.67886C0.100099 6.71459 0 6.8421 0 6.98869C0 7.13526 0.100099 7.26277 0.242303 7.29852C0.67726 7.40815 1.10109 7.55115 1.5142 7.7291C2.59106 8.19265 3.53328 8.82862 4.34121 9.63616C5.14916 10.4437 5.78471 11.3863 6.24826 12.4632C6.42621 12.8759 6.56921 13.3001 6.67886 13.7351C6.71459 13.8773 6.8421 13.9774 6.98869 13.9774C7.13526 13.9774 7.26277 13.8773 7.29852 13.7351C7.40815 13.3001 7.55115 12.8763 7.7291 12.4632C8.19265 11.3863 8.82861 10.4441 9.63616 9.63616C10.4437 8.82862 11.3863 8.19265 12.4632 7.7291C12.8759 7.55115 13.3001 7.40815 13.7351 7.29852C13.8773 7.26277 13.9774 7.13526 13.9774 6.98869C13.9774 6.8421 13.8773 6.71459 13.7351 6.67886C13.3001 6.56921 12.8763 6.42622 12.4632 6.24827Z" fill="var(--fill-0, white)"/>
</svg>
